<svg id="Calque_1" data-name="Calque 1" xmlns="http://www.w3.org/2000/svg" width="876.7" height="316.25" viewBox="0 0 876.7 316.25"><path d="M624.33,40.29c73.54,68.08,66.11,176.6.5,235.73-62.7,56.5-160.24,53.16-218.61-7.92-61.62-64.48-59.68-169.69,14-232.23-8.73.85-16.37,1.47-24,2.35-47.17,5.45-94,13-140,24.83-65.54,16.84-128.77,39.7-188,72.88A356.71,356.71,0,0,0,5.63,180.39a47,47,0,0,1-4.15,3L0,182.22a34.41,34.41,0,0,1,2.86-4.77c17-20.1,36.67-37.27,58.16-52.37C99.33,98.19,141.46,78.89,184.9,62.13,242.25,40.06,301.41,24.7,362.05,14.86,424.67,4.7,487.62-1.39,551.11.27c59.42,1.56,118.32,7.59,175.78,23.79C764,34.52,799,49.64,830.11,72.89c18.61,13.92,33.82,30.7,41.27,53.26,11,33.46,4.57,64.37-15.78,92.19-9.87,13.5-22,25.34-33.28,37.81-1,1.06-3,1.16-4.5,1.7.51-1.43.71-3.1,1.6-4.25,10.69-13.82,19.84-28.53,23.79-45.73,8.46-36.78-2.5-67.71-29.6-93.23-20-18.87-43.86-31.8-68.86-42.68C706.61,55.36,666.44,46.43,624.33,40.29Zm-105,173.05a54.75,54.75,0,1,0-54.57-54.93v.31A54.6,54.6,0,0,0,519.33,213.34ZM393.69,97.63c-18.27,41.09-18.31,81.25.06,122l58.4-29.2c-1.78-11.27-4.69-21.52-4.67-31.77s2.91-20.77,4.65-31.82Z" transform="translate(0 0)"/></svg>