<svg id="Calque_1" data-name="Calque 1" xmlns="http://www.w3.org/2000/svg" width="173.33" height="349.04" viewBox="0 0 173.33 349.04"><defs><style>.cls-1{fill:#fff;}</style></defs><path d="M151.37,25.86c-3.12,3.33.94,5.71,1.41,8.94l-4.4-1.43,1.33,3.27c-.65,3.22-1.66,5.34-1.34,7.23.83,4.86-.57,8.87-2.67,13.21-3.76,7.73-5.82,16.38-10.16,23.7-5.44,9.16-8,18.54-7.28,29,.06.95,0,1.9,0,3.9-8.55-12.75-8-25.95-7.36-39.47.62-13.72,2.3-26.83,12-38.19-3.45-.54-7.41,1.26-8.14-4.1,4.29,3.16,6.62.46,9.64-3.33L130.67,30l-.75-.57c2.22-2.69,4.34-5.48,6.7-8,2.56-2.78,5.53-5.21,7.94-8.11a6.76,6.76,0,0,0,1-4.65c-.67-5.94-1.69-11.83-2.47-17.76-.57-4.28-1-8.57-1.39-12.87-.1-1.28,0-3.34.73-3.78,4.59-2.67,2.32-7,2.92-10.57,1.45-8.63,2.73-17.32,4.83-25.8,1.27-5.13,1.9-5-1.23-10.11l4.06,1.44,20.83-21.78L173-96.69l1-.69,2,2.95c9.66-2.5,18.47-5.48,27.52-7,13.6-2.23,26.24,1.6,38.36,7.86,12.41,6.42,20.24,16.85,26.45,28.8,6.81,13.09,7,26.92,4.7,41.17-.59,3.66,1,7.67,1.62,11.52q2,12.31,4,24.64c.11.65.18,1.65.58,1.84,8.3,4,5.71,14,10.74,20l-4.32-2.78c2.89,7.17,5.63,13.94,8.36,20.72l-1.28.59q-4.81-7.7-9.64-15.39l-.81.38A48.38,48.38,0,0,0,285,44c8.17,12.54,10.21,26,5.29,40.09-4.54,13-4.33,26.51-5.52,39.9a11.39,11.39,0,0,1-1.13,4.49c-1.08-4-2-8-3.28-11.87-3.27-9.74-6.47-19.52-10.29-29-.77-1.9-4.18-2.75-7.18-3.62C273,106.05,278.78,128.6,273,152.45c-2.71,11.24-7.25,22-11.28,34-1.55-10.35-2.44-19.48-4.4-28.38-1.37-6.24-4.19-12.17-6.37-18.23q-4.83-13.4-9.68-26.78c-1.14-3.12-2.4-6.21-3.61-9.31l-2.4.83c2,7.06,4,14.13,6.08,21.16,6.19,20.67,9.9,41.38,1.9,62.51-7.4,19.55-14.63,39.17-21.93,58.76l-2.24-.36c-.66-5.25-1.14-10.53-2-15.75q-4.32-25.83-8.91-51.62c-3.08-17.25-2.12-34.13,3.92-50.67.9-2.47,1-5.25,1.85-7.74,2.5-7,5.22-13.84,8-21.28l-6,6.75-.94-.47c2.15-4.4,4.2-8.85,6.47-13.18,1.88-3.62,3.65-7.39,6.12-10.6,4.07-5.28,4.21-11.3,4.32-17.41a131,131,0,0,0-4.7-38.82c-7.64.4-15.06.7-22.46,1.28-.9.07-1.93,1.54-2.46,2.58-3.24,6.4-3.39,13.06-1.5,19.91,3.12,11.28,3.7,22.73.86,34.09-2.32,9.32-.3,13,6.3,18.25l-3.37,1.3c6.28,6.8,3,13.21-1,19.6q.39-7.17.79-14.36c-6,7.58-4.69,14.07,4.22,24.36l-7.14-3.25c0,8.34.07,16.79,0,25.24a22.19,22.19,0,0,1-1,6.89c-4.91,14.12-4.81,28.79-4.95,43.44,0,.95-.12,1.89-.19,3-10.34-8.33-21.59-44.55-21.55-67.57-4.07,19.58-8.26,39.14-6.1,59.59L164,188.93c-5.86-18.12-10.62-36.54-11-55.64-.17-8.52,1.71-17.14,3.16-25.64,1.28-7.55,3.32-15,4.88-22.47a60.62,60.62,0,0,0,.64-6.89L160.43,78l-2.71,8.43-1.06,0c.33-3.11.43-6.26,1.05-9.31a53.19,53.19,0,0,1,3.08-11.22c4.74-10.63,1.61-21.27,1-32C161.4,26.44,163,19,163.55,11.54c.11-1.31.35-3.16-.36-3.92-8.6-9.07-13.93-19.81-16.93-31.83-.07-.28-.4-.5-1.18-1.43-2.66,9.47,1.14,17.69,2.31,26.07S150,17.31,151.37,25.86Zm28.15,87.67,8.1-11.07-.73-.5L183,103.67c6.58-4.83,5.12-16.78,15.8-17.49,2.58-10.35,3.31-20.63.86-30.82-2.3-9.56-3.79-18.91,1.13-28.58a80,80,0,0,1-34.9-15.28c-2.53,23-4,45.66,9.59,66.28l-3.72-3.41c2.35,5.27,4.51,10.13,6.67,15l-1.1.59c-1.1-1.4-2.21-2.79-2.76-3.48Zm66.69-97.48c3.08,11.32,6.71,21.57,8.47,32.13a53.42,53.42,0,0,0,8.52,21.23c1.67,2.54,2.53,5.61,4.13,9.32L264,77.06l-.6.65L267.69,83V56.48l-6.89,1.34c9-8.94,11.14-14.56,8.67-22.17L268,35.38q-1.19,7.53-2.36,15c-1.74-7.3-4.75-14.76,3.13-20.34l-3.25-2c9.1-4.42,11.6-9.28,10.12-19.31-.42-2.8-.82-5.6-1.28-8.39-.9-5.4-1.85-10.8-2.77-16.2C265.79-2.37,257.25,8.42,246.21,16.05Zm-4.74,86c1.77-5.71,3.65-11.41,5.23-17.21.26-1-.81-2.28-1.39-3.75l2.36-3.32L244,77.34c1.65-2.51,4.78-5.31,4.24-6.78-1.77-4.87,2.38-7,3.55-10.39.48-1.35,1.69-2.68,1.61-4-.76-13.25-4.58-25.7-10.11-38L230.86,23.9c1.15,14.16,3.07,27.52,3,40.88,0,10.41,2.38,20,5.17,29.7l-2.22.42ZM177.58-34,161.73-45.58c-2.82,6.16-5.5,12-8.25,18l14.33,9.06Zm47.58-47.21c1.75,5,3.15,9.46,4.91,13.74a4.16,4.16,0,0,0,3.12,2.18c5.72-.15,11.43-.67,17.6-1.09-1.17-3.31-2.1-6-3-8.6-3-8.27-3-8.28-11.56-7.45C232.72-82.12,229.27-81.69,225.16-81.23Zm37.66,61.89c-1.57-5.11-3.22-10.46-4.87-15.87-17.19,7.25-15.84,12.28-9.51,26.7ZM170.47,3c3.9,0,7.88-.25,11.81.08,3.52.29,6.15-1.6,6-4.31-.17-3.82-1-9.37-3.49-10.92-4.21-2.58-10-2.58-15.66-3.77C169.63-9.09,170.05-3,170.47,3Zm33.25,16.23L217.05,9.1l-8.9-13.17c-3,1.52-5.69,2.82-8.31,4.22-4.93,2.62-5.73,6.72-2.25,11.19Zm11-67c-2.86-.26-7.24.47-8.63,2.42-5,7.05-1.88,15.55,6.07,18.81,1.55-1.36,2.66-3.17,4-3.36,4.19-.61,4.34-3.38,4.33-6.53M179.7-53.37c2-8.85-6.72-9.56-9.26-14.86L159-63.89c1,5.19,2,10.3,3.07,15.86Zm72.61-11c-2.62,3.69-5.08,7-7.31,10.41-.5.77-.73,2.54-.26,3,4.17,4.1,8.53,8,13.17,12.29,2-6.59,3.65-12.24,5.47-18.32ZM222.27-82,208.35-92.36l-11.13,9.44c3.2,3,5.87,5.75,8.79,8.16.89.74,2.86,1.25,3.71.77C213.84-76.34,217.74-79.06,222.27-82Zm-27.22-.49-15.36-3.27c-.53,2.82-.66,5.73-1.65,8.31-1.48,3.87.66,5.73,3.46,7,3.62,1.59,7.47,2.64,11.68,4.08C193.83-72,194.42-77.06,195.05-82.5Zm-8.2,68.41c.8-1.93,1.38-3.29,1.93-4.65a9.85,9.85,0,0,0-6.13-13.07c-1.27-.41-3.55-.77-4-.17-3.18,4.45-6,9.15-9.23,14.22Zm59,9.39c-13-4.18-18.3,4.64-24.84,13.06l20.13,1.05C242.51,5.22,244.18.23,245.82-4.7ZM191.11-43c-2.6-2.57-4.73-4.86-7.07-6.9-1-.88-2.64-2-3.67-1.71-5.36,1.37-10.62,3.15-16.89,5.1l15.37,11.22Zm51.55-7.22c-6.18,6-7.89,13.54-4.3,17.44s11,1.93,18-4.78ZM209.58-5.14c3,4.48,5.85,8.64,8.89,13.1L230.79-5.8l-11.7-8Zm-.16-66.16c4.45,9.46,9.34,11,19.47,6.11l-5.45-15.38c-4.21,2.7-7.82,5-11.42,7.33C211.2-72.71,210.45-72.08,209.42-71.3ZM188.71-12.49c1,15.76,6.16,14.62,18.39,6.42l-4.45-10.25Zm44.08,5.11h13.45c-1.35-4.4-1.83-8.84-4.05-12.1-1.34-2-5.4-2.94-8.19-2.85-3.81.13-4.41,3.13-3.31,6.56C231.54-13.1,232.07-10.32,232.79-7.38ZM171.69,5.28c8.68,7.61,17.78,12.08,28.61,13.68C197.05,9.81,184.45,2.24,171.69,5.28ZM240.6-85.53c-9.45-5.84-19-9.18-30.4-8.7C218.6-84.36,228-80.64,240.6-85.53Zm9.23,21c-4.37.28-7.93.42-11.48.76-8.28.78-8.27.82-10.64,8.93C241.12-51.35,242.18-51.78,249.83-64.51ZM168.05,1.88c1.76-14.91-2.33-22.38-13.9-26C156.31-14.24,160.91-6,168.05,1.88ZM207.2,19.75a52.22,52.22,0,0,0,31-8.19C227,10.26,215.6,8,207.2,19.75Zm-13-73.25c-.68-11.91-1.46-12.71-12.56-14.42-3.89,4.3-1.94,9.39.73,12.08C184.64-53.58,189.8-54.23,194.24-53.5ZM264.39-54c-5.44,15.56-5.29,23.51.39,32.21A55.06,55.06,0,0,0,264.39-54Zm-67.56-26c-2.4,16.47-4,14.25,7.43,18.43C208-71.48,207.66-72.33,196.83-80.09Zm47,88.61A56.39,56.39,0,0,0,263-16.59C252.21-10.85,244.84-3.74,243.87,8.52ZM228.68-22.57c6-.22,6.9-4.78,8.31-8.39.38-.95-1.76-3.76-3.3-4.43-4.48-1.93-8.15-.16-11,3.82Zm-21.79-72c-9.11.73-16.85,2.66-24.58,7.15C194.86-83.18,199-84.36,206.89-94.61ZM153.14-32.5c7.2-9.44,8.26-15.78,4.47-26.83C153.47-53.42,151.32-40.52,153.14-32.5Zm51,5c-8.08-.93-13.08,3.63-14,12.42C205.05-18.5,202.31-16.34,204.1-27.53Zm8,4c-8.57,5.69-8.9,7.6-2.87,16.24l8.56-7.85ZM177.27-83.47l-1.16-1.1L160.87-68.41C172.41-69,176.13-72.81,177.27-83.47Zm4.36,48.76c7.07,4.08,15.41,3,18.78-2.15C191.11-42.85,195-43.44,181.63-34.71ZM239.72-51c-15.3-2.33-13.17-2.66-16.23,5C228.69-42.43,235.68-44.45,239.72-51Zm-9,42.94c-.94-4.21-1.08-7.54-2.49-10.21-1-1.83-3.55-3-5.66-3.89-.64-.26-3.13,1.75-3,2.5a9.42,9.42,0,0,0,2.37,5.44C224.15-12.09,227-10.59,230.72-8.07ZM201-44.66c-6.15-8.48-7.54-9.08-15.93-6.88C189.74-47.66,192.82-40.87,201-44.66Zm-5.21-18c-1,8.37.54,10.51,8.53,12C205-59.08,204.34-60,195.79-62.68Zm54-16.43-1.12,1c2,7.22,3.81,14.63,14.19,17.17C258-67.68,253.91-73.4,249.8-79.11ZM228-62.18c-8.61,1.74-12.17,5.57-10.85,11.46C223.27-52,227.11-55.5,228-62.18Zm-18.41-5.51c-4.55,8.17-4.31,9.45,1.92,15.57Zm12.92,32.22,1.24.92c1.24-1.84,3-3.57,3.47-5.59.19-.86-2.43-2.33-4.71-4.37Z" transform="translate(-120.59 102.03)"/><path class="cls-1" d="M230.72-8.07" transform="translate(-120.59 102.03)"/><path class="cls-1" d="M222.57-22.17" transform="translate(-120.59 102.03)"/><path class="cls-1" d="M209.61-67.69" transform="translate(-120.59 102.03)"/><path class="cls-1" d="M211.53-52.12" transform="translate(-120.59 102.03)"/></svg>