<svg id="Calque_1" data-name="Calque 1" xmlns="http://www.w3.org/2000/svg" xmlns:xlink="http://www.w3.org/1999/xlink" width="750" height="500" viewBox="0 0 750 500"><defs><style>.cls-1,.cls-12,.cls-14,.cls-24,.cls-30,.cls-31,.cls-34,.cls-35,.cls-5,.cls-6,.cls-7{fill:none;}.cls-2{fill:#f1e0df;}.cls-3{fill:#e3cdc9;}.cls-4{fill:#8155ff;}.cls-14,.cls-24,.cls-31,.cls-5,.cls-6{stroke:#fff;}.cls-12,.cls-14,.cls-35,.cls-5,.cls-6{stroke-miterlimit:10;}.cls-5{stroke-width:0.62px;}.cls-6{stroke-width:1.09px;}.cls-7{stroke:#fafafa;stroke-width:1.1px;}.cls-24,.cls-30,.cls-31,.cls-34,.cls-7{stroke-linecap:round;stroke-linejoin:round;}.cls-8{fill:#fdb9b9;}.cls-9{fill:#fff;}.cls-10{fill:#2b4183;}.cls-11{fill:#ffcb2d;}.cls-12{stroke:#f0e0df;stroke-width:2.21px;}.cls-13{fill:#f88aa0;}.cls-14{stroke-width:2.02px;}.cls-15{fill:#ffa80a;}.cls-16{fill:#f67b91;}.cls-17{fill:#f6f6f6;}.cls-18{opacity:0.71;}.cls-19{clip-path:url(#clip-path);}.cls-20{fill:#8054ff;}.cls-21{fill:#7041fd;}.cls-22{fill:#fa849b;}.cls-23{fill:#181f42;}.cls-24{stroke-width:1.5px;}.cls-25{fill:#ffcd2e;}.cls-26{fill:#f2bb19;}.cls-27{fill:#e6728c;}.cls-28{fill:#312725;}.cls-29{fill:#f8879d;}.cls-30,.cls-34{stroke:#312725;}.cls-30{stroke-width:0.6px;}.cls-31{stroke-width:1.55px;}.cls-32{fill:#243b77;}.cls-33{fill:#32292a;}.cls-34{stroke-width:0.6px;}.cls-35{stroke:#281f27;stroke-width:0.76px;}</style><clipPath id="clip-path"><circle class="cls-1" cx="455.5" cy="350.8" r="60.1" transform="translate(-114.64 424.83) rotate(-45)"/></clipPath></defs><g id="BACKGROUND"><rect class="cls-2" width="750" height="500"/></g><g id="OBJECTS"><path class="cls-3" d="M167.3,387.5a68.63,68.63,0,0,1,14.5,3.2h0c.1,0,.1,0,.2.1s.3.1.5.2c26.4,9.4,38.5,7.7,48.9,4.5,28-8.6,44.7-45.7,90.1-38.5,19.3,3,34.8,7.2,46.8,15.6h0c.1.1.2.1.3.2,1.7,1.2,3.4,2.5,5,3.7,23.6,15.4,47.1-4.7,53.9-9.2.5-.4,1-3.2,1.5-3.6a3,3,0,0,0,.4-.3h0c29.6-20.9,76.7-42,122-36.8,78,8.9,109.3,97.3,109.3,97.3H78.3C87.4,402.9,123.8,382.5,167.3,387.5Z"/><path class="cls-4" d="M108.2,162.6h45.9a1.9,1.9,0,0,0,1.9-1.9V147.9a1.9,1.9,0,0,0-1.9-1.9H108.2a1.9,1.9,0,0,0-1.9,1.9v12.8A1.84,1.84,0,0,0,108.2,162.6Z"/><line class="cls-5" x1="116" y1="152.5" x2="148.6" y2="152.5"/><line class="cls-5" x1="116" y1="156.2" x2="125.6" y2="156.2"/><polygon class="cls-4" points="150.1 160.4 150.1 167.9 140.6 160.4 150.1 160.4"/><ellipse class="cls-6" cx="646.9" cy="235.8" rx="5.6" ry="5.7"/><ellipse class="cls-6" cx="85.6" cy="271.5" rx="8" ry="8.1"/><path class="cls-6" d="M389,103.1a3,3,0,1,1-3-3.1A3.1,3.1,0,0,1,389,103.1Z"/><path class="cls-7" d="M127.6,86.6H257.7s-.6-5.2-15.1-9.3-24.8,6.5-41.2,0-25-15.7-46.1-10.6S127.6,86.6,127.6,86.6Z"/><path class="cls-7" d="M539.9,132.2h67.3s-.3-3.2-7.8-5.8-12.8,4.1-21.3,0-12.9-9.9-23.8-6.6A22.61,22.61,0,0,0,539.9,132.2Z"/><circle class="cls-8" cx="482.51" cy="65.73" r="22"/><rect class="cls-9" x="241.4" y="193" width="228.9" height="229.6"/><path class="cls-4" d="M470.3,156.9V193H241.4V156.9a13,13,0,0,1,13-13H457.3A13,13,0,0,1,470.3,156.9Z"/><circle class="cls-10" cx="434.8" cy="166.3" r="10.8"/><path class="cls-11" d="M434.8,170.4h0a6.23,6.23,0,0,0,6.2-6.2V136.3a6.23,6.23,0,0,0-6.2-6.2h0a6.23,6.23,0,0,0-6.2,6.2v27.9A6.23,6.23,0,0,0,434.8,170.4Z"/><circle class="cls-10" cx="358.8" cy="166.3" r="10.8"/><path class="cls-11" d="M358.8,170.4h0a6.23,6.23,0,0,0,6.2-6.2V136.3a6.23,6.23,0,0,0-6.2-6.2h0a6.23,6.23,0,0,0-6.2,6.2v27.9A6.23,6.23,0,0,0,358.8,170.4Z"/><circle class="cls-10" cx="282.8" cy="166.3" r="10.8"/><path class="cls-11" d="M282.8,170.4h0a6.23,6.23,0,0,0,6.2-6.2V136.3a6.23,6.23,0,0,0-6.2-6.2h0a6.23,6.23,0,0,0-6.2,6.2v27.9A6.23,6.23,0,0,0,282.8,170.4Z"/><rect class="cls-12" x="392.98" y="229.93" width="43.5" height="43.5"/><rect class="cls-12" x="335.07" y="229.93" width="43.5" height="43.5"/><rect class="cls-12" x="277.16" y="229.93" width="43.5" height="43.5"/><rect class="cls-12" x="392.98" y="285.12" width="43.5" height="43.5"/><rect class="cls-12" x="335.07" y="285.12" width="43.5" height="43.5"/><rect class="cls-13" x="277.16" y="285.12" width="43.5" height="43.5"/><line class="cls-14" x1="292.8" y1="300.7" x2="304.9" y2="313.1"/><line class="cls-14" x1="304.9" y1="300.7" x2="292.8" y2="313.1"/><rect class="cls-12" x="392.98" y="340.42" width="43.5" height="43.5"/><rect class="cls-12" x="335.07" y="340.42" width="43.5" height="43.5"/><rect class="cls-12" x="277.16" y="340.42" width="43.5" height="43.5"/><rect class="cls-15" x="445.2" y="271.3" width="21.2" height="13.9"/><path class="cls-11" d="M469.6,274.9H441.9a5.7,5.7,0,0,1-5.7-5.7h0a5.7,5.7,0,0,1,5.7-5.7h27.7a5.7,5.7,0,0,1,5.7,5.7h0A5.63,5.63,0,0,1,469.6,274.9Z"/><rect class="cls-15" x="394.18" y="296.7" width="16.9" height="11.9" transform="translate(-96.08 373.35) rotate(-45)"/><path class="cls-11" d="M408.2,292l-16.7,16.7a4.29,4.29,0,0,1-6.1,0h0a4.29,4.29,0,0,1,0-6.1l16.7-16.7a4.29,4.29,0,0,1,6.1,0h0A4.29,4.29,0,0,1,408.2,292Z"/><circle class="cls-16" cx="455.5" cy="350.8" r="71.6" transform="translate(-114.64 424.83) rotate(-45)"/><circle class="cls-13" cx="455.5" cy="350.8" r="67.7"/><circle class="cls-17" cx="455.5" cy="350.8" r="60.1" transform="translate(-114.64 424.83) rotate(-45)"/><g class="cls-18"><g class="cls-19"><polygon class="cls-9" points="389.8 303.3 480.8 444.4 522 409.1 431.9 282.7 389.8 303.3"/></g><g class="cls-19"><polygon class="cls-9" points="438.3 269.3 529.4 410.4 534.7 392.7 444.6 266.4 438.3 269.3"/></g></g><path class="cls-20" d="M455.8,304.3a1.54,1.54,0,0,1-1.5-1.5v-3.5a1.5,1.5,0,0,1,3,0v3.5A1.54,1.54,0,0,1,455.8,304.3Z"/><path class="cls-20" d="M455.8,404.7a1.54,1.54,0,0,1-1.5-1.5v-3.5a1.5,1.5,0,0,1,3,0v3.5A1.54,1.54,0,0,1,455.8,404.7Z"/><path class="cls-20" d="M421.6,318.5a1.5,1.5,0,0,1-1.1-.4l-2.5-2.5a1.48,1.48,0,0,1,2.1-2.1l2.5,2.5a1.45,1.45,0,0,1,0,2.1A1.78,1.78,0,0,1,421.6,318.5Z"/><path class="cls-20" d="M492.6,389.5a1.5,1.5,0,0,1-1.1-.4l-2.5-2.5a1.48,1.48,0,0,1,2.1-2.1l2.5,2.5a1.45,1.45,0,0,1,0,2.1A2.11,2.11,0,0,1,492.6,389.5Z"/><path class="cls-20" d="M419.1,389.5a1.5,1.5,0,0,1-1.1-.4,1.45,1.45,0,0,1,0-2.1l2.5-2.5a1.48,1.48,0,0,1,2.1,2.1l-2.5,2.5A2.11,2.11,0,0,1,419.1,389.5Z"/><path class="cls-20" d="M490.1,318.5a1.5,1.5,0,0,1-1.1-.4,1.45,1.45,0,0,1,0-2.1l2.5-2.5a1.48,1.48,0,0,1,2.1,2.1l-2.5,2.5A2.11,2.11,0,0,1,490.1,318.5Z"/><path class="cls-20" d="M407.4,352.7h-3.5a1.5,1.5,0,0,1,0-3h3.5a1.5,1.5,0,0,1,0,3Z"/><path class="cls-20" d="M507.8,352.7h-3.5a1.5,1.5,0,0,1,0-3h3.5a1.5,1.5,0,0,1,0,3Z"/><path class="cls-20" d="M459.4,350.6h-7.2V319.3a3.59,3.59,0,0,1,3.6-3.6h0a3.59,3.59,0,0,1,3.6,3.6Z"/><circle class="cls-10" cx="455.8" cy="350.6" r="8.3"/><path class="cls-21" d="M208.7,276.2l13.1,57.7a15.63,15.63,0,0,1-5.5,14.4l-39.1,30.5.7-28.1,19.5-15.9-20.2-60.2Z"/><polygon class="cls-22" points="158.1 379.1 176.9 369.2 169.5 358.7 149.1 369.9 155.6 378.1 158.1 379.1"/><path class="cls-23" d="M153.6,365.4s3.2,11.6,12.3,11l3.5,27.8-27-34.2Z"/><rect class="cls-9" x="152.35" y="366.55" width="4.1" height="43.6" transform="translate(-207.31 179.02) rotate(-38.26)"/><path class="cls-24" d="M166.4,380.1a15.28,15.28,0,0,0-5.3-.5"/><path class="cls-24" d="M167.2,384.1a15.28,15.28,0,0,0-5.3-.5"/><path class="cls-24" d="M168,388.2a15.28,15.28,0,0,0-5.3-.5"/><polygon class="cls-22" points="174.9 413.1 176.8 392.2 164 391.5 162.1 414.5 172.6 414.5 174.9 413.1"/><path class="cls-23" d="M160.4,408.1s11.1,4.7,16.3-2.9l24,14.4H157.1Z"/><rect class="cls-9" x="157.1" y="419.7" width="43.6" height="4.1"/><path class="cls-24" d="M179.8,407.2a16.64,16.64,0,0,0-3.7,3.8"/><path class="cls-24" d="M183.5,409.1a16.64,16.64,0,0,0-3.7,3.8"/><path class="cls-24" d="M187.2,411a16.64,16.64,0,0,0-3.7,3.8"/><polygon class="cls-4" points="165.5 274.8 159.6 396.5 181.9 396.5 198.2 275.2 165.5 274.8"/><polygon class="cls-4" points="208.7 276.2 208.7 276.2 195.1 297.4 192.3 275.7 208.7 276.2"/><polygon class="cls-22" points="266.7 255.6 253.4 256.6 255.7 243.2 269.7 244.4 266.7 255.6"/><path class="cls-22" d="M277.9,254.9a9.36,9.36,0,1,1,1-13.2A9.36,9.36,0,0,1,277.9,254.9Z"/><path class="cls-22" d="M272.3,238.5s-1.7-3.9-5.7-1-7.5,8.8-1.9,16.4Z"/><path class="cls-22" d="M272.3,238.5l10.7-2.7a1.75,1.75,0,0,1,2.2,1.1h0a1.48,1.48,0,0,1-.8,1.9l-10.9,4.9Z"/><path class="cls-25" d="M216.3,219.8l17.6,27.9a9.72,9.72,0,0,1-3.2,12.9h0a9.81,9.81,0,0,1-13.5-2.8L197.9,231a10.88,10.88,0,0,1,1.4-13.6h0A10.81,10.81,0,0,1,216.3,219.8Z"/><polygon class="cls-26" points="210.8 249 211.9 233.7 215.7 255.6 210.8 249"/><path class="cls-25" d="M224.8,244.9l38.8-4.6-.1,17.7-36.1,4.6a9,9,0,0,1-10.7-9.2h0A8.93,8.93,0,0,1,224.8,244.9Z"/><path class="cls-22" d="M157.7,297.4s4.3.3,3.6-4.6-4.4-10.9-13.8-9.6Z"/><rect class="cls-25" x="126.46" y="293.55" width="43.5" height="43.5"/><rect class="cls-25" x="128.49" y="293.55" width="43.5" height="43.5"/><path class="cls-22" d="M140.3,294.6a9.53,9.53,0,1,1,11.4,7.2A9.55,9.55,0,0,1,140.3,294.6Z"/><path class="cls-25" d="M158.8,247.3l-.4,39-17.1-.8-.5-37.9a9,9,0,0,1,10.5-9.5h0A9,9,0,0,1,158.8,247.3Z"/><path class="cls-25" d="M180.8,231l-23.6,23a9.74,9.74,0,0,1-13.3-.4h0a9.75,9.75,0,0,1-.1-13.7l22.1-24.6a10.9,10.9,0,0,1,13.6-1.5h0A10.76,10.76,0,0,1,180.8,231Z"/><path class="cls-25" d="M207.1,214.3l-33.5-2.2c-3-.2-8.4,5.3-8.1,8.3v54.4l43.2,1.4,4.4-55.2A6.37,6.37,0,0,0,207.1,214.3Z"/><polygon class="cls-26" points="165.5 245.9 175.2 236.4 165.5 262.2 165.5 245.9"/><path class="cls-27" d="M201.7,191.7a4.65,4.65,0,0,0,4,5,4.48,4.48,0,0,0,4.8-4.2,4.65,4.65,0,0,0-4-5A4.49,4.49,0,0,0,201.7,191.7Z"/><path class="cls-22" d="M199.1,202.5l-.2,11c-.1,3.8-2.4,5.9-6.1,5.8h0c-3.1-.1-6.5-1.7-6.3-5.1l1.1-17.2Z"/><path class="cls-28" d="M199,209.8s-8.9.6-11.5-9.5c-.8-3.2,11.7,1.1,11.7,1.1Z"/><path class="cls-29" d="M195.7,205.6h0c6.3.1,11.5-4.9,11.8-10.1l.5-11a12.11,12.11,0,0,0-10.8-12.9h0c-6.5-.6-13.4,4.3-14,11.1l-.3,8.6A13.69,13.69,0,0,0,195.7,205.6Z"/><polyline class="cls-30" points="201 190.7 201.3 194.3 199.8 194.3"/><path class="cls-28" d="M194.2,183.4s2.6-.2,2.6.9c0,0,0,.7-2.3.8s-2.8-.1-3-.8S193,183.3,194.2,183.4Z"/><path class="cls-28" d="M205,185.9s-2.1-.3-2.3.7c0,0-.1.7,1.7.9s2.5,0,2.6-.6S206,185.9,205,185.9Z"/><path class="cls-28" d="M203.3,190a1.19,1.19,0,0,0,1,1.2,1,1,0,0,0,1.1-1.1,1.19,1.19,0,0,0-1-1.2A1.27,1.27,0,0,0,203.3,190Z"/><path class="cls-28" d="M193.9,189.5a1.19,1.19,0,0,0,1,1.2,1,1,0,0,0,1.1-1.1,1.06,1.06,0,1,0-2.1-.1Z"/><path class="cls-30" d="M196.5,195.9a3.59,3.59,0,0,0,3.6,1.2"/><path class="cls-28" d="M205.5,166.2c-2.4-1-8.5-2.2-9.9,3.2-6.1-.5-15.8-.4-16.7,4.9-1.4,7.8,4.1,15.4,4.1,15.4l1.5.8s3.9-2,2.9-11.3c0,0,14.1,3.4,20.7-.2S212.7,169.3,205.5,166.2Z"/><path class="cls-29" d="M177.2,190.9a4.42,4.42,0,1,0,4.8-4.1A4.41,4.41,0,0,0,177.2,190.9Z"/><path class="cls-30" d="M183,192.5s.3-3.3-2.8-3"/><path class="cls-22" d="M182.2,212.6l20.1,1.3s.6,6.9-8.3,6.4C184,219.8,182.2,212.6,182.2,212.6Z"/><polygon class="cls-22" points="602.1 380 582.3 370.8 589.4 359.7 611 370.1 604.7 378.9 602.1 380"/><path class="cls-23" d="M606.1,365.8s-2.7,12.1-12.2,11.9l-2.3,28.7,26.1-36.5Z"/><rect class="cls-9" x="583.9" y="387.2" width="44.9" height="4.2" transform="translate(-63.35 655.23) rotate(-54.36)"/><path class="cls-31" d="M593.6,381.4a16.54,16.54,0,0,1,5.4-.8"/><path class="cls-31" d="M593,385.6a16.54,16.54,0,0,1,5.4-.8"/><path class="cls-31" d="M592.4,389.9a16.54,16.54,0,0,1,5.4-.8"/><path class="cls-32" d="M556.2,259.5s-12.9,48.3-14.8,57.8-5.7,28.6,2.3,35.4S582.4,376,582.4,376l11.3-20.3-18.3-11Z"/><polygon class="cls-22" points="573.6 413 569.6 391.5 582.8 390.9 586.8 414.4 576 414.4 573.6 413"/><path class="cls-23" d="M587.5,407.9s-11.4,4.9-16.7-3L546,419.8h44.9Z"/><rect class="cls-9" x="546.06" y="419.86" width="44.9" height="4.2"/><path class="cls-31" d="M567.5,406.9a17.71,17.71,0,0,1,3.8,3.9"/><path class="cls-31" d="M563.7,408.9a17.71,17.71,0,0,1,3.8,3.9"/><path class="cls-31" d="M559.9,410.8a17.71,17.71,0,0,1,3.8,3.9"/><path class="cls-10" d="M556.2,259.5l-1.3,72.8a51.23,51.23,0,0,0,.6,7.8l10.8,56.2H589L582.7,333c.3-11.6,4.1-24.7,5.6-38.9,0,0,4.4-26.4-7.7-34.4Z"/><path class="cls-22" d="M541.7,249.5l-37-13.5-4.3,7.2,36.1,19.1a8.3,8.3,0,0,0,11.1-9.2h0C547,250.2,544.5,250.5,541.7,249.5Z"/><path class="cls-22" d="M500.1,230.5a2.86,2.86,0,0,0-2.6-.8,1.64,1.64,0,0,0-1,2.6l.5.9c-1.2.5-3.6.6-8.1-4a2.31,2.31,0,0,0-2.8-.4,1.4,1.4,0,0,0-.4,1.8.1.1,0,0,0,.1.1,1.91,1.91,0,0,0-1.8.2,1.4,1.4,0,0,0-.4,1.8c0,.1.1.2.2.3a1.14,1.14,0,0,0-.8.3,1.4,1.4,0,0,0-.4,1.8,1,1,0,0,0,.4.5l.2.2h-.1a1.4,1.4,0,0,0-.4,1.8,1,1,0,0,0,.4.5,20.29,20.29,0,0,0,3.7,3.1h.1a15.05,15.05,0,0,0,1.7,1c2.6,1.5,8.1.2,12.9,1l3.7-7Z"/><rect class="cls-25" x="453.21" y="203.96" width="44.6" height="44.6" transform="translate(77.56 571.14) rotate(-66.36)"/><path class="cls-22" d="M500.7,231.2l-3.6-4.2a1.41,1.41,0,0,0-2.2,0h0a1.38,1.38,0,0,0-.2,1.6l1.8,3.6a9.77,9.77,0,0,0,2.2,9.1Z"/><path class="cls-22" d="M558.1,250.3,544.6,261a8.28,8.28,0,0,1-9.5.6h0c-4.2-2.6-6.7-4.9-3.7-8.8l14.8-15Z"/><path class="cls-21" d="M568.5,237.4s-1.8,8.8-12.4,16.9l-16.4-15.5L553,224Z"/><path class="cls-22" d="M594.1,249.1,622.6,285l6.4-4.3s-16.3-30.4-23.9-40a8.28,8.28,0,0,0-14.2,2.3h0C589.9,245.8,592.2,246.8,594.1,249.1Z"/><path class="cls-22" d="M624,292.3a2.66,2.66,0,0,0,1.8,1.9,1.63,1.63,0,0,0,2.1-1.7v-1c1.2.2,3.4,1.2,5.1,7.2a2.22,2.22,0,0,0,2.2,1.6,1.33,1.33,0,0,0,1.2-1.4v-.1a2,2,0,0,0,1.6.7,1.33,1.33,0,0,0,1.2-1.4v-.3a1.41,1.41,0,0,0,.9.1,1.33,1.33,0,0,0,1.2-1.4,1.27,1.27,0,0,0-.1-.6c0-.1,0-.2-.1-.2h.1a1.33,1.33,0,0,0,1.2-1.4,1.27,1.27,0,0,0-.1-.6,25.2,25.2,0,0,0-1.7-4.4h0v-.1a9.5,9.5,0,0,0-1-1.7c-1.5-2.5-6.8-4-10.6-6.9l-6.4,4.3Z"/><path class="cls-22" d="M589.8,226.9l13,11.4a8.2,8.2,0,0,1,2.2,9.2h0c-1.8,4.6-3.7,7.5-8,5.2l-17.4-11.9Z"/><path class="cls-4" d="M573.1,219a34.72,34.72,0,0,1,20.9,9.2l-8.8,16.4-17.4-6Z"/><path class="cls-4" d="M559.1,220s-10.8,3-10.8,17.4c0,7.9,7.9,22.1,7.9,22.1l24.3.1a193.89,193.89,0,0,0,5.7-18.9c2.1-9-4.7-17.5-13-21.8Z"/><polygon class="cls-21" points="585.2 244.6 575.7 237.8 583 252 585.2 244.6"/><path class="cls-29" d="M565.2,224.6h0c3.4-.5,4.6-2.8,4.1-6.1l-3.8-19.3-10.2,1.6,2.8,18.6A6.33,6.33,0,0,0,565.2,224.6Z"/><path class="cls-33" d="M563.2,203s3.3,10.3-5.5,13.8l-.8-6.2,9-6.8"/><path class="cls-29" d="M555.7,211.9h0c6.4-.6,11.1-5.7,10.5-11.4l-1.8-18.6H553.7c-3.9.4-9.4,5.6-9,9.1l1.9,11.5C546.9,206.8,550.3,212.4,555.7,211.9Z"/><path class="cls-29" d="M547,196l-2.4,6.2a.86.86,0,0,0,.9,1.3l4.2-.4Z"/><path class="cls-28" d="M549.2,193.1s-2.3.1-2.2,1c0,0,.1.6,2.1.5s2.5-.3,2.6-.9S550.2,193,549.2,193.1Z"/><path class="cls-28" d="M549.3,197.6a1,1,0,1,1-1.1-.8A.92.92,0,0,1,549.3,197.6Z"/><path class="cls-30" d="M548.6,204.8a2.62,2.62,0,0,0,2.3-1.9"/><path class="cls-29" d="M566.3,217.9l6.9,1.1s-7.2,11.7-14.4,8.9c-8.2-3.2,2.7-9.4,2.7-9.4Z"/><path class="cls-33" d="M563.4,196.8a8.84,8.84,0,0,1-6.4-6.4l-14.3,2.8s-2.2-14.2,14.9-16.9c8.6-1.3,14,2.8,16.9,6.9a14.09,14.09,0,0,1,1.1,13.5,22.44,22.44,0,0,1-8.7,9.5l-1.3-7.1C565.5,199.1,564.3,197.1,563.4,196.8Z"/><path class="cls-29" d="M570.2,195.8a4.57,4.57,0,0,1-4.5,4.6,4.48,4.48,0,0,1-4.4-4.6,4.45,4.45,0,1,1,8.9,0Z"/><path class="cls-34" d="M564.2,196.9s0-3.3,3.1-2.8"/><path class="cls-33" d="M592.9,177.6a11.11,11.11,0,1,1-12.8-9.1A11.1,11.1,0,0,1,592.9,177.6Z"/><line class="cls-35" x1="690.1" y1="424.4" x2="53.9" y2="424.4"/></g></svg>